<?xml version="1.0" standalone="no"?>
<!DOCTYPE svg PUBLIC "-//W3C//DTD SVG 20010904//EN"
 "http://www.w3.org/TR/2001/REC-SVG-20010904/DTD/svg10.dtd">
<svg version="1.0" xmlns="http://www.w3.org/2000/svg"
 width="278.000000pt" height="276.000000pt" viewBox="0 0 278.000000 276.000000"
 preserveAspectRatio="xMidYMid meet">

<g transform="translate(0.000000,276.000000) scale(0.100000,-0.100000)"
fill="#000000" stroke="none">
<path d="M1285 2740 c-249 -38 -466 -195 -574 -417 -102 -209 -102 -461 0
-668 93 -189 263 -331 464 -390 112 -32 217 -41 314 -26 347 54 598 305 652
652 37 238 -73 522 -263 678 -168 137 -391 201 -593 171z"/>
<path d="M705 1268 c-101 -62 -234 -169 -322 -262 -237 -247 -366 -545 -367
-848 -1 -64 2 -119 5 -122 4 -4 314 -12 690 -18 773 -13 2021 0 2043 22 15 15
13 204 -3 289 -48 253 -167 482 -351 675 -100 105 -255 228 -348 275 l-41 21
-42 -36 c-227 -190 -579 -251 -876 -152 -99 33 -236 108 -288 159 -17 16 -35
29 -40 28 -6 0 -32 -14 -60 -31z"/>
</g>
</svg>
